<svg id="visual" viewBox="0 0 960 80" width="960" height="80" xmlns="http://www.w3.org/2000/svg" xmlns:xlink="http://www.w3.org/1999/xlink" version="1.1"><path d="M0 77L17.8 77.2C35.7 77.3 71.3 77.7 106.8 75.7C142.3 73.7 177.7 69.3 213.2 62.3C248.7 55.3 284.3 45.7 320 43C355.7 40.3 391.3 44.7 426.8 40.8C462.3 37 497.7 25 533.2 19.7C568.7 14.3 604.3 15.7 640 20.2C675.7 24.7 711.3 32.3 746.8 32.3C782.3 32.3 817.7 24.7 853.2 25.8C888.7 27 924.3 37 942.2 42L960 47L960 81L942.2 81C924.3 81 888.7 81 853.2 81C817.7 81 782.3 81 746.8 81C711.3 81 675.7 81 640 81C604.3 81 568.7 81 533.2 81C497.7 81 462.3 81 426.8 81C391.3 81 355.7 81 320 81C284.3 81 248.7 81 213.2 81C177.7 81 142.3 81 106.8 81C71.3 81 35.7 81 17.8 81L0 81Z" fill="#fffbf7"></path><path d="M0 41L17.8 45.2C35.7 49.3 71.3 57.7 106.8 57.8C142.3 58 177.7 50 213.2 46C248.7 42 284.3 42 320 47C355.7 52 391.3 62 426.8 60.3C462.3 58.7 497.7 45.3 533.2 36.3C568.7 27.3 604.3 22.7 640 22.7C675.7 22.7 711.3 27.3 746.8 32.8C782.3 38.3 817.7 44.7 853.2 42.5C888.7 40.3 924.3 29.7 942.2 24.3L960 19L960 81L942.2 81C924.3 81 888.7 81 853.2 81C817.7 81 782.3 81 746.8 81C711.3 81 675.7 81 640 81C604.3 81 568.7 81 533.2 81C497.7 81 462.3 81 426.8 81C391.3 81 355.7 81 320 81C284.3 81 248.7 81 213.2 81C177.7 81 142.3 81 106.8 81C71.3 81 35.7 81 17.8 81L0 81Z" fill="#fffbf6"></path><path d="M0 29L17.8 30.3C35.7 31.7 71.3 34.3 106.8 38C142.3 41.7 177.7 46.3 213.2 51.8C248.7 57.3 284.3 63.7 320 59C355.7 54.3 391.3 38.7 426.8 32.2C462.3 25.7 497.7 28.3 533.2 31C568.7 33.7 604.3 36.3 640 39.7C675.7 43 711.3 47 746.8 50.3C782.3 53.7 817.7 56.3 853.2 57.5C888.7 58.7 924.3 58.3 942.2 58.2L960 58L960 81L942.2 81C924.3 81 888.7 81 853.2 81C817.7 81 782.3 81 746.8 81C711.3 81 675.7 81 640 81C604.3 81 568.7 81 533.2 81C497.7 81 462.3 81 426.8 81C391.3 81 355.7 81 320 81C284.3 81 248.7 81 213.2 81C177.7 81 142.3 81 106.8 81C71.3 81 35.7 81 17.8 81L0 81Z" fill="#fffaf5"></path><path d="M0 75L17.8 67.3C35.7 59.7 71.3 44.3 106.8 43.5C142.3 42.7 177.7 56.3 213.2 60.7C248.7 65 284.3 60 320 52.2C355.7 44.3 391.3 33.7 426.8 30.8C462.3 28 497.7 33 533.2 40.7C568.7 48.3 604.3 58.7 640 58.2C675.7 57.7 711.3 46.3 746.8 43C782.3 39.7 817.7 44.3 853.2 43.2C888.7 42 924.3 35 942.2 31.5L960 28L960 81L942.2 81C924.3 81 888.7 81 853.2 81C817.7 81 782.3 81 746.8 81C711.3 81 675.7 81 640 81C604.3 81 568.7 81 533.2 81C497.7 81 462.3 81 426.8 81C391.3 81 355.7 81 320 81C284.3 81 248.7 81 213.2 81C177.7 81 142.3 81 106.8 81C71.3 81 35.7 81 17.8 81L0 81Z" fill="#fffaf4"></path><path d="M0 74L17.8 74C35.7 74 71.3 74 106.8 66.8C142.3 59.7 177.7 45.3 213.2 39.5C248.7 33.7 284.3 36.3 320 41.7C355.7 47 391.3 55 426.8 59.7C462.3 64.3 497.7 65.7 533.2 65C568.7 64.3 604.3 61.7 640 55.8C675.7 50 711.3 41 746.8 39.7C782.3 38.3 817.7 44.7 853.2 47.5C888.7 50.3 924.3 49.7 942.2 49.3L960 49L960 81L942.2 81C924.3 81 888.7 81 853.2 81C817.7 81 782.3 81 746.8 81C711.3 81 675.7 81 640 81C604.3 81 568.7 81 533.2 81C497.7 81 462.3 81 426.8 81C391.3 81 355.7 81 320 81C284.3 81 248.7 81 213.2 81C177.7 81 142.3 81 106.8 81C71.3 81 35.7 81 17.8 81L0 81Z" fill="#fff9f3"></path><path d="M0 60L17.8 60.5C35.7 61 71.3 62 106.8 61.3C142.3 60.7 177.7 58.3 213.2 57.3C248.7 56.3 284.3 56.7 320 55.3C355.7 54 391.3 51 426.8 54C462.3 57 497.7 66 533.2 70.5C568.7 75 604.3 75 640 73.7C675.7 72.3 711.3 69.7 746.8 64.3C782.3 59 817.7 51 853.2 49.5C888.7 48 924.3 53 942.2 55.5L960 58L960 81L942.2 81C924.3 81 888.7 81 853.2 81C817.7 81 782.3 81 746.8 81C711.3 81 675.7 81 640 81C604.3 81 568.7 81 533.2 81C497.7 81 462.3 81 426.8 81C391.3 81 355.7 81 320 81C284.3 81 248.7 81 213.2 81C177.7 81 142.3 81 106.8 81C71.3 81 35.7 81 17.8 81L0 81Z" fill="#fff5ea"></path><path d="M0 70L17.8 66.5C35.7 63 71.3 56 106.8 55.8C142.3 55.7 177.7 62.3 213.2 62.3C248.7 62.3 284.3 55.7 320 56.7C355.7 57.7 391.3 66.3 426.8 66.3C462.3 66.3 497.7 57.7 533.2 57.3C568.7 57 604.3 65 640 68.8C675.7 72.7 711.3 72.3 746.8 72.7C782.3 73 817.7 74 853.2 72.5C888.7 71 924.3 67 942.2 65L960 63L960 81L942.2 81C924.3 81 888.7 81 853.2 81C817.7 81 782.3 81 746.8 81C711.3 81 675.7 81 640 81C604.3 81 568.7 81 533.2 81C497.7 81 462.3 81 426.8 81C391.3 81 355.7 81 320 81C284.3 81 248.7 81 213.2 81C177.7 81 142.3 81 106.8 81C71.3 81 35.7 81 17.8 81L0 81Z" fill="#fff1e2"></path><path d="M0 72L17.8 69.3C35.7 66.7 71.3 61.3 106.8 62.3C142.3 63.3 177.7 70.7 213.2 74C248.7 77.3 284.3 76.7 320 75.7C355.7 74.7 391.3 73.3 426.8 71C462.3 68.7 497.7 65.3 533.2 65C568.7 64.7 604.3 67.3 640 66.7C675.7 66 711.3 62 746.8 61.3C782.3 60.7 817.7 63.3 853.2 63C888.7 62.7 924.3 59.3 942.2 57.7L960 56L960 81L942.2 81C924.3 81 888.7 81 853.2 81C817.7 81 782.3 81 746.8 81C711.3 81 675.7 81 640 81C604.3 81 568.7 81 533.2 81C497.7 81 462.3 81 426.8 81C391.3 81 355.7 81 320 81C284.3 81 248.7 81 213.2 81C177.7 81 142.3 81 106.8 81C71.3 81 35.7 81 17.8 81L0 81Z" fill="#ffedd9"></path><path d="M0 64L17.8 64.8C35.7 65.7 71.3 67.3 106.8 67.7C142.3 68 177.7 67 213.2 68.7C248.7 70.3 284.3 74.7 320 74.5C355.7 74.3 391.3 69.7 426.8 69.2C462.3 68.7 497.7 72.3 533.2 73.3C568.7 74.3 604.3 72.7 640 72.7C675.7 72.7 711.3 74.3 746.8 75.5C782.3 76.7 817.7 77.3 853.2 77.2C888.7 77 924.3 76 942.2 75.5L960 75L960 81L942.2 81C924.3 81 888.7 81 853.2 81C817.7 81 782.3 81 746.8 81C711.3 81 675.7 81 640 81C604.3 81 568.7 81 533.2 81C497.7 81 462.3 81 426.8 81C391.3 81 355.7 81 320 81C284.3 81 248.7 81 213.2 81C177.7 81 142.3 81 106.8 81C71.3 81 35.7 81 17.8 81L0 81Z" fill="#ffe9d1"></path></svg>